RobotoDelta-wghtmin-opszmax.ufo
<glyph name="quotedbl" format="2">
  <advance width="560"/>
  <unicode hex="0022"/>
  <outline>
    <contour>
      <point x="88" y="1099" type="line"/>
      <point x="172" y="1099" type="line"/>
      <point x="180" y="1357" type="line"/>
      <point x="180" y="1456" type="line"/>
      <point x="80" y="1456" type="line"/>
      <point x="80" y="1357" type="line"/>
    </contour>
    <contour>
      <point x="388" y="1099" type="line"/>
      <point x="472" y="1099" type="line"/>
      <point x="480" y="1357" type="line"/>
      <point x="480" y="1456" type="line"/>
      <point x="380" y="1456" type="line"/>
      <point x="380" y="1357" type="line"/>
    </contour>
  </outline>
</glyph>
<glyph name="numbersign" format="2">
  <advance width="1397"/>
  <unicode hex="0023"/>
  <outline>
    <contour>
      <point x="187" y="-20" type="line"/>
      <point x="264" y="-20" type="line"/>
      <point x="745" y="1476" type="line"/>
      <point x="667" y="1476" type="line"/>
    </contour>
    <contour>
      <point x="652" y="-20" type="line"/>
      <point x="730" y="-20" type="line"/>
      <point x="1210" y="1476" type="line"/>
      <point x="1133" y="1476" type="line"/>
    </contour>
    <contour>
      <point x="29" y="441" type="line"/>
      <point x="1290" y="441" type="line"/>
      <point x="1290" y="522" type="line"/>
      <point x="29" y="522" type="line"/>
    </contour>
    <contour>
      <point x="108" y="934" type="line"/>
      <point x="1368" y="934" type="line"/>
      <point x="1368" y="1015" type="line"/>
      <point x="108" y="1015" type="line"/>
    </contour>
  </outline>
</glyph>
<glyph name="percent" format="1">
  <advance width="1497"/>
  <unicode hex="0025"/>
  <outline>
    <contour>
      <point x="50" y="1016" type="line" smooth="yes"/>
      <point x="50" y="856"/>
      <point x="175" y="660"/>
      <point x="304" y="660" type="qcurve" smooth="yes"/>
      <point x="434" y="660"/>
      <point x="559" y="856"/>
      <point x="559" y="1016" type="qcurve" smooth="yes"/>
      <point x="559" y="1120" type="line" smooth="yes"/>
      <point x="559" y="1280"/>
      <point x="434" y="1476"/>
      <point x="304" y="1476" type="qcurve" smooth="yes"/>
      <point x="175" y="1476"/>
      <point x="50" y="1280"/>
      <point x="50" y="1120" type="qcurve" smooth="yes"/>
    </contour>
    <contour>
      <point x="131" y="1016" type="qcurve" smooth="yes"/>
      <point x="131" y="1120" type="line" smooth="yes"/>
      <point x="131" y="1241"/>
      <point x="207" y="1395"/>
      <point x="304" y="1395" type="qcurve" smooth="yes"/>
      <point x="402" y="1395"/>
      <point x="478" y="1241"/>
      <point x="478" y="1120" type="qcurve" smooth="yes"/>
      <point x="478" y="1016" type="line" smooth="yes"/>
      <point x="478" y="895"/>
      <point x="402" y="741"/>
      <point x="304" y="741" type="qcurve" smooth="yes"/>
      <point x="207" y="741"/>
      <point x="131" y="895"/>
    </contour>
    <contour>
      <point x="255" y="38" type="line"/>
      <point x="322" y="-10" type="line"/>
      <point x="1242" y="1416" type="line"/>
      <point x="1176" y="1466" type="line"/>
    </contour>
    <contour>
      <point x="939" y="336" type="line" smooth="yes"/>
      <point x="939" y="172"/>
      <point x="1062" y="-20"/>
      <point x="1193" y="-20" type="qcurve" smooth="yes"/>
      <point x="1324" y="-20"/>
      <point x="1447" y="179"/>
      <point x="1447" y="339" type="qcurve" smooth="yes"/>
      <point x="1447" y="440" type="line" smooth="yes"/>
      <point x="1447" y="599"/>
      <point x="1324" y="796"/>
      <point x="1193" y="796" type="qcurve" smooth="yes"/>
      <point x="1062" y="796"/>
      <point x="939" y="599"/>
      <point x="939" y="440" type="qcurve" smooth="yes"/>
    </contour>
    <contour>
      <point x="1020" y="336" type="qcurve" smooth="yes"/>
      <point x="1020" y="440" type="line" smooth="yes"/>
      <point x="1020" y="560"/>
      <point x="1095" y="715"/>
      <point x="1193" y="715" type="qcurve" smooth="yes"/>
      <point x="1291" y="715"/>
      <point x="1366" y="559"/>
      <point x="1366" y="438" type="qcurve" smooth="yes"/>
      <point x="1366" y="336" type="line" smooth="yes"/>
      <point x="1366" y="216"/>
      <point x="1291" y="61"/>
      <point x="1193" y="61" type="qcurve" smooth="yes"/>
      <point x="1095" y="61"/>
      <point x="1020" y="210"/>
    </contour>
  </outline>
</glyph>
<glyph name="ampersand" format="2">
  <advance width="1075"/>
  <unicode hex="0026"/>
  <outline>
    <contour>
      <point x="60" y="380" type="qcurve" smooth="yes"/>
      <point x="60" y="213"/>
      <point x="268" y="-20"/>
      <point x="453" y="-20" type="qcurve" smooth="yes"/>
      <point x="686" y="-20"/>
      <point x="1002" y="380"/>
      <point x="1002" y="674" type="qcurve"/>
      <point x="917" y="674" type="line"/>
      <point x="917" y="393"/>
      <point x="643" y="63"/>
      <point x="453" y="63" type="qcurve" smooth="yes"/>
      <point x="314" y="63"/>
      <point x="148" y="243"/>
      <point x="148" y="380" type="qcurve" smooth="yes"/>
      <point x="148" y="494"/>
      <point x="285" y="671"/>
      <point x="426" y="765" type="qcurve" smooth="yes"/>
      <point x="562" y="856" type="line" smooth="yes"/>
      <point x="648" y="914"/>
      <point x="752" y="1074"/>
      <point x="752" y="1180" type="qcurve" smooth="yes"/>
      <point x="752" y="1312"/>
      <point x="602" y="1486"/>
      <point x="479" y="1486" type="qcurve" smooth="yes"/>
      <point x="355" y="1486"/>
      <point x="194" y="1301"/>
      <point x="194" y="1160" type="qcurve" smooth="yes"/>
      <point x="194" y="1067"/>
      <point x="267" y="905"/>
      <point x="373" y="768" type="qcurve" smooth="yes"/>
      <point x="961" y="0" type="line"/>
      <point x="1071" y="0" type="line"/>
      <point x="444" y="815" type="line" smooth="yes"/>
      <point x="347" y="940"/>
      <point x="281" y="1084"/>
      <point x="281" y="1160" type="qcurve" smooth="yes"/>
      <point x="281" y="1258"/>
      <point x="387" y="1403"/>
      <point x="479" y="1403" type="qcurve" smooth="yes"/>
      <point x="569" y="1403"/>
      <point x="666" y="1268"/>
      <point x="666" y="1177" type="qcurve" smooth="yes"/>
      <point x="666" y="1096"/>
      <point x="586" y="970"/>
      <point x="510" y="920" type="qcurve" smooth="yes"/>
      <point x="376" y="831" type="line" smooth="yes"/>
      <point x="230" y="735"/>
      <point x="60" y="526"/>
    </contour>
  </outline>
</glyph>
<glyph name="parenleft" format="2">
  <advance width="556"/>
  <unicode hex="0028"/>
  <outline>
    <contour>
      <point x="562" y="-436" type="qcurve"/>
      <point x="562" y="-351" type="line"/>
      <point x="420" y="-277"/>
      <point x="195" y="133"/>
      <point x="195" y="508" type="qcurve" smooth="yes"/>
      <point x="195" y="532" type="line" smooth="yes"/>
      <point x="195" y="907"/>
      <point x="420" y="1317"/>
      <point x="562" y="1391" type="qcurve"/>
      <point x="562" y="1476" type="line"/>
      <point x="377" y="1397"/>
      <point x="104" y="920"/>
      <point x="104" y="525" type="qcurve" smooth="yes"/>
      <point x="104" y="515" type="line" smooth="yes"/>
      <point x="104" y="120"/>
      <point x="377" y="-357"/>
    </contour>
  </outline>
</glyph>
<glyph name="plus" format="1">
  <advance width="1130"/>
  <unicode hex="002B"/>
  <outline>
    <contour>
      <point x="95" y="631" type="line"/>
      <point x="1035" y="631" type="line"/>
      <point x="1035" y="717" type="line"/>
      <point x="95" y="717" type="line"/>
    </contour>
    <contour>
      <point x="522" y="183" type="line"/>
      <point x="608" y="183" type="line"/>
      <point x="608" y="1165" type="line"/>
      <point x="522" y="1165" type="line"/>
    </contour>
  </outline>
</glyph>
<glyph name="slash" format="1">
  <advance width="486"/>
  <unicode hex="002F"/>
  <outline>
    <contour>
      <point x="-120" y="-125" type="line"/>
      <point x="-32" y="-125" type="line"/>
      <point x="606" y="1456" type="line"/>
      <point x="518" y="1456" type="line"/>
    </contour>
  </outline>
</glyph>
<glyph name="zero" format="1">
  <advance width="1153"/>
  <unicode hex="0030"/>
  <outline>
    <contour>
      <point x="193" y="478" type="line" smooth="yes"/>
      <point x="193" y="246"/>
      <point x="394" y="-30"/>
      <point x="577" y="-30" type="qcurve" smooth="yes"/>
      <point x="759" y="-30"/>
      <point x="961" y="246"/>
      <point x="961" y="478" type="qcurve" smooth="yes"/>
      <point x="961" y="978" type="line" smooth="yes"/>
      <point x="961" y="1210"/>
      <point x="759" y="1486"/>
      <point x="577" y="1486" type="qcurve" smooth="yes"/>
      <point x="394" y="1486"/>
      <point x="193" y="1210"/>
      <point x="193" y="978" type="qcurve" smooth="yes"/>
    </contour>
    <contour>
      <point x="284" y="468" type="qcurve" smooth="yes"/>
      <point x="284" y="988" type="line" smooth="yes"/>
      <point x="284" y="1167"/>
      <point x="429" y="1401"/>
      <point x="577" y="1401" type="qcurve" smooth="yes"/>
      <point x="725" y="1401"/>
      <point x="870" y="1167"/>
      <point x="870" y="988" type="qcurve" smooth="yes"/>
      <point x="870" y="468" type="line" smooth="yes"/>
      <point x="870" y="288"/>
      <point x="725" y="55"/>
      <point x="577" y="55" type="qcurve" smooth="yes"/>
      <point x="429" y="55"/>
      <point x="284" y="288"/>
    </contour>
  </outline>
</glyph>
<glyph name="three" format="2">
  <advance width="1153"/>
  <unicode hex="0033"/>
  <outline>
    <contour>
      <point x="158" y="380" type="line" smooth="yes"/>
      <point x="158" y="200"/>
      <point x="382" y="-30"/>
      <point x="557" y="-30" type="qcurve" smooth="yes"/>
      <point x="733" y="-30"/>
      <point x="958" y="200"/>
      <point x="958" y="400" type="qcurve" smooth="yes"/>
      <point x="958" y="540"/>
      <point x="808" y="729"/>
      <point x="687" y="759" type="qcurve"/>
      <point x="687" y="763" type="line"/>
      <point x="803" y="815"/>
      <point x="904" y="993"/>
      <point x="904" y="1100" type="qcurve" smooth="yes"/>
      <point x="904" y="1270"/>
      <point x="713" y="1486"/>
      <point x="557" y="1486" type="qcurve" smooth="yes"/>
      <point x="402" y="1486"/>
      <point x="199" y="1267"/>
      <point x="199" y="1100" type="qcurve" smooth="yes"/>
      <point x="199" y="1090" type="line"/>
      <point x="288" y="1090" type="line"/>
      <point x="288" y="1100" type="line" smooth="yes"/>
      <point x="288" y="1244"/>
      <point x="441" y="1401"/>
      <point x="557" y="1401" type="qcurve" smooth="yes"/>
      <point x="674" y="1401"/>
      <point x="814" y="1244"/>
      <point x="814" y="1097" type="qcurve" smooth="yes"/>
      <point x="814" y="963"/>
      <point x="656" y="802"/>
      <point x="507" y="802" type="qcurve" smooth="yes"/>
      <point x="398" y="802" type="line"/>
      <point x="398" y="716" type="line"/>
      <point x="518" y="716" type="line" smooth="yes"/>
      <point x="670" y="716"/>
      <point x="866" y="554"/>
      <point x="866" y="400" type="qcurve" smooth="yes"/>
      <point x="866" y="226"/>
      <point x="698" y="55"/>
      <point x="557" y="55" type="qcurve" smooth="yes"/>
      <point x="416" y="55"/>
      <point x="246" y="226"/>
      <point x="246" y="380" type="qcurve" smooth="yes"/>
      <point x="246" y="390" type="line"/>
      <point x="158" y="390" type="line"/>
    </contour>
  </outline>
</glyph>
<glyph name="four" format="1">
  <advance width="1153"/>
  <unicode hex="0034"/>
  <outline>
    <contour>
      <point x="776" y="0" type="line"/>
      <point x="863" y="0" type="line"/>
      <point x="863" y="1456" type="line"/>
      <point x="779" y="1456" type="line"/>
      <point x="97" y="446" type="line"/>
      <point x="97" y="361" type="line"/>
      <point x="1073" y="361" type="line"/>
      <point x="1073" y="446" type="line"/>
      <point x="833" y="446" type="line"/>
      <point x="799" y="446" type="line"/>
      <point x="199" y="446" type="line"/>
      <point x="768" y="1287" type="line"/>
      <point x="776" y="1287" type="line"/>
      <point x="776" y="416" type="line"/>
      <point x="776" y="393" type="line"/>
    </contour>
  </outline>
</glyph>
<glyph name="colon" format="2">
  <advance width="453"/>
  <unicode hex="003A"/>
  <outline>
    <contour>
      <point x="156" y="67" type="qcurve" smooth="yes"/>
      <point x="156" y="30"/>
      <point x="193" y="-22"/>
      <point x="227" y="-22" type="qcurve" smooth="yes"/>
      <point x="261" y="-22"/>
      <point x="297" y="30"/>
      <point x="297" y="67" type="qcurve" smooth="yes"/>
      <point x="297" y="104"/>
      <point x="261" y="156"/>
      <point x="227" y="156" type="qcurve" smooth="yes"/>
      <point x="193" y="156"/>
      <point x="156" y="104"/>
    </contour>
    <contour>
      <point x="156" y="979" type="qcurve" smooth="yes"/>
      <point x="156" y="942"/>
      <point x="193" y="890"/>
      <point x="227" y="890" type="qcurve" smooth="yes"/>
      <point x="261" y="890"/>
      <point x="297" y="942"/>
      <point x="297" y="979" type="qcurve" smooth="yes"/>
      <point x="297" y="1016"/>
      <point x="261" y="1068"/>
      <point x="227" y="1068" type="qcurve" smooth="yes"/>
      <point x="193" y="1068"/>
      <point x="156" y="1016"/>
    </contour>
  </outline>
</glyph>
<glyph name="equal" format="1">
  <advance width="1165"/>
  <unicode hex="003D"/>
  <outline>
    <contour>
      <point x="177" y="434" type="line"/>
      <point x="987" y="434" type="line"/>
      <point x="987" y="520" type="line"/>
      <point x="177" y="520" type="line"/>
    </contour>
    <contour>
      <point x="177" y="828" type="line"/>
      <point x="987" y="828" type="line"/>
      <point x="987" y="914" type="line"/>
      <point x="177" y="914" type="line"/>
    </contour>
  </outline>
</glyph>
<glyph name="greater" format="2">
  <advance width="1163"/>
  <unicode hex="003E"/>
  <outline>
    <contour>
      <point x="160" y="249" type="line"/>
      <point x="1011" y="631" type="line"/>
      <point x="1011" y="717" type="line"/>
      <point x="160" y="1099" type="line"/>
      <point x="160" y="998" type="line"/>
      <point x="906" y="674" type="line"/>
      <point x="160" y="350" type="line"/>
    </contour>
  </outline>
</glyph>
<glyph name="E" format="2">
  <advance width="965"/>
  <unicode hex="0045"/>
  <outline>
    <contour>
      <point x="150" y="0" type="line"/>
      <point x="917" y="0" type="line"/>
      <point x="917" y="75" type="line"/>
      <point x="230" y="75" type="line"/>
      <point x="230" y="719" type="line"/>
      <point x="811" y="719" type="line"/>
      <point x="811" y="793" type="line"/>
      <point x="230" y="793" type="line"/>
      <point x="230" y="1381" type="line"/>
      <point x="907" y="1381" type="line"/>
      <point x="907" y="1456" type="line"/>
      <point x="150" y="1456" type="line"/>
    </contour>
  </outline>
</glyph>
<glyph name="H" format="1">
  <advance width="1249"/>
  <unicode hex="0048"/>
  <outline>
    <contour>
      <point x="150" y="0" type="line"/>
      <point x="230" y="0" type="line"/>
      <point x="230" y="719" type="line"/>
      <point x="1019" y="719" type="line"/>
      <point x="1019" y="0" type="line"/>
      <point x="1099" y="0" type="line"/>
      <point x="1099" y="1456" type="line"/>
      <point x="1019" y="1456" type="line"/>
      <point x="1019" y="793" type="line"/>
      <point x="230" y="793" type="line"/>
      <point x="230" y="1456" type="line"/>
      <point x="150" y="1456" type="line"/>
    </contour>
  </outline>
</glyph>
<glyph name="J" format="2">
  <advance width="883"/>
  <unicode hex="004A"/>
  <outline>
    <contour>
      <point x="5" y="408" type="line" smooth="yes"/>
      <point x="5" y="204"/>
      <point x="211" y="-30"/>
      <point x="377" y="-30" type="qcurve" smooth="yes"/>
      <point x="543" y="-30"/>
      <point x="748" y="219"/>
      <point x="748" y="433" type="qcurve" smooth="yes"/>
      <point x="748" y="1456" type="line"/>
      <point x="668" y="1456" type="line"/>
      <point x="668" y="433" type="line" smooth="yes"/>
      <point x="668" y="252"/>
      <point x="512" y="56"/>
      <point x="377" y="56" type="qcurve" smooth="yes"/>
      <point x="242" y="56"/>
      <point x="86" y="236"/>
      <point x="86" y="408" type="qcurve" smooth="yes"/>
      <point x="86" y="418" type="line"/>
      <point x="5" y="418" type="line"/>
    </contour>
  </outline>
</glyph>
<glyph name="K" format="2">
  <advance width="1079"/>
  <unicode hex="004B"/>
  <outline>
    <contour>
      <point x="150" y="0" type="line"/>
      <point x="230" y="0" type="line"/>
      <point x="230" y="495" type="line"/>
      <point x="993" y="1453" type="line"/>
      <point x="897" y="1453" type="line"/>
      <point x="230" y="616" type="line"/>
      <point x="230" y="1456" type="line"/>
      <point x="150" y="1456" type="line"/>
    </contour>
    <contour>
      <point x="950" y="-3" type="line"/>
      <point x="1047" y="-3" type="line"/>
      <point x="479" y="879" type="line"/>
      <point x="431" y="805" type="line"/>
    </contour>
  </outline>
</glyph>
<glyph name="M" format="2">
  <advance width="1516"/>
  <unicode hex="004D"/>
  <outline>
    <contour>
      <point x="150" y="0" type="line"/>
      <point x="227" y="0" type="line"/>
      <point x="227" y="1182" type="line" smooth="yes"/>
      <point x="227" y="1212"/>
      <point x="221" y="1287"/>
      <point x="217" y="1317" type="qcurve"/>
      <point x="229" y="1317" type="line"/>
      <point x="235" y="1287"/>
      <point x="261" y="1212"/>
      <point x="273" y="1182" type="qcurve" smooth="yes"/>
      <point x="727" y="0" type="line"/>
      <point x="808" y="0" type="line"/>
      <point x="1242" y="1182" type="line" smooth="yes"/>
      <point x="1253" y="1212"/>
      <point x="1279" y="1287"/>
      <point x="1286" y="1317" type="qcurve"/>
      <point x="1297" y="1317" type="line"/>
      <point x="1293" y="1287"/>
      <point x="1287" y="1212"/>
      <point x="1287" y="1182" type="qcurve" smooth="yes"/>
      <point x="1287" y="0" type="line"/>
      <point x="1366" y="0" type="line"/>
      <point x="1366" y="1456" type="line"/>
      <point x="1272" y="1456" type="line"/>
      <point x="816" y="232" type="line" smooth="yes"/>
      <point x="804" y="201"/>
      <point x="782" y="137"/>
      <point x="773" y="107" type="qcurve"/>
      <point x="765" y="107" type="line"/>
      <point x="757" y="137"/>
      <point x="725" y="201"/>
      <point x="712" y="232" type="qcurve" smooth="yes"/>
      <point x="245" y="1456" type="line"/>
      <point x="150" y="1456" type="line"/>
    </contour>
  </outline>
</glyph>
<glyph name="S" format="2">
  <advance width="1009"/>
  <unicode hex="0053"/>
  <outline>
    <contour>
      <point x="70" y="391" type="line" smooth="yes"/>
      <point x="70" y="197"/>
      <point x="312" y="-30"/>
      <point x="514" y="-30" type="qcurve" smooth="yes"/>
      <point x="715" y="-30"/>
      <point x="949" y="193"/>
      <point x="949" y="366" type="qcurve" smooth="yes"/>
      <point x="949" y="527"/>
      <point x="772" y="714"/>
      <point x="554" y="781" type="qcurve" smooth="yes"/>
      <point x="334" y="848"/>
      <point x="179" y="994"/>
      <point x="179" y="1104" type="qcurve" smooth="yes"/>
      <point x="179" y="1238"/>
      <point x="338" y="1410"/>
      <point x="504" y="1410" type="qcurve" smooth="yes"/>
      <point x="670" y="1410"/>
      <point x="839" y="1216"/>
      <point x="839" y="1071" type="qcurve" smooth="yes"/>
      <point x="839" y="1059" type="line"/>
      <point x="919" y="1059" type="line"/>
      <point x="919" y="1071" type="line" smooth="yes"/>
      <point x="919" y="1244"/>
      <point x="694" y="1486"/>
      <point x="504" y="1486" type="qcurve" smooth="yes"/>
      <point x="314" y="1486"/>
      <point x="100" y="1267"/>
      <point x="100" y="1104" type="qcurve" smooth="yes"/>
      <point x="100" y="951"/>
      <point x="285" y="770"/>
      <point x="504" y="704" type="qcurve" smooth="yes"/>
      <point x="726" y="635"/>
      <point x="870" y="484"/>
      <point x="870" y="366" type="qcurve" smooth="yes"/>
      <point x="870" y="230"/>
      <point x="686" y="46"/>
      <point x="514" y="46" type="qcurve" smooth="yes"/>
      <point x="341" y="46"/>
      <point x="150" y="226"/>
      <point x="150" y="391" type="qcurve" smooth="yes"/>
      <point x="150" y="403" type="line"/>
      <point x="70" y="403" type="line"/>
    </contour>
  </outline>
</glyph>
<glyph name="U" format="1">
  <advance width="1152"/>
  <unicode hex="0055"/>
  <outline>
    <contour>
      <point x="135" y="478" type="line" smooth="yes"/>
      <point x="135" y="224"/>
      <point x="389" y="-30"/>
      <point x="576" y="-30" type="qcurve" smooth="yes"/>
      <point x="763" y="-30"/>
      <point x="1017" y="224"/>
      <point x="1017" y="478" type="qcurve" smooth="yes"/>
      <point x="1017" y="1456" type="line"/>
      <point x="937" y="1456" type="line"/>
      <point x="937" y="478" type="line" smooth="yes"/>
      <point x="937" y="260"/>
      <point x="733" y="48"/>
      <point x="576" y="48" type="qcurve" smooth="yes"/>
      <point x="419" y="48"/>
      <point x="215" y="261"/>
      <point x="215" y="478" type="qcurve" smooth="yes"/>
      <point x="215" y="1456" type="line"/>
      <point x="135" y="1456" type="line"/>
    </contour>
  </outline>
</glyph>
<glyph name="W" format="2">
  <advance width="1669"/>
  <unicode hex="0057"/>
  <outline>
    <contour>
      <point x="438" y="-10" type="line"/>
      <point x="512" y="-10" type="line"/>
      <point x="805" y="1215" type="line" smooth="yes"/>
      <point x="813" y="1250"/>
      <point x="829" y="1310"/>
      <point x="832" y="1343" type="qcurve"/>
      <point x="837" y="1343" type="line"/>
      <point x="840" y="1310"/>
      <point x="850" y="1249"/>
      <point x="859" y="1215" type="qcurve" smooth="yes"/>
      <point x="1157" y="-10" type="line"/>
      <point x="1231" y="-10" type="line"/>
      <point x="1569" y="1456" type="line"/>
      <point x="1489" y="1456" type="line"/>
      <point x="1217" y="237" type="line" smooth="yes"/>
      <point x="1209" y="203"/>
      <point x="1200" y="142"/>
      <point x="1197" y="109" type="qcurve"/>
      <point x="1194" y="109" type="line"/>
      <point x="1189" y="143"/>
      <point x="1177" y="202"/>
      <point x="1169" y="237" type="qcurve" smooth="yes"/>
      <point x="879" y="1456" type="line"/>
      <point x="793" y="1456" type="line"/>
      <point x="502" y="237" type="line" smooth="yes"/>
      <point x="494" y="203"/>
      <point x="485" y="142"/>
      <point x="481" y="109" type="qcurve"/>
      <point x="479" y="109" type="line"/>
      <point x="474" y="143"/>
      <point x="462" y="202"/>
      <point x="453" y="237" type="qcurve" smooth="yes"/>
      <point x="173" y="1456" type="line"/>
      <point x="90" y="1456" type="line"/>
    </contour>
  </outline>
</glyph>
<glyph name="bracketright" format="1">
  <advance width="514"/>
  <unicode hex="005D"/>
  <outline>
    <contour>
      <point x="390" y="-310" type="line"/>
      <point x="390" y="1456" type="line"/>
      <point x="-9" y="1456" type="line"/>
      <point x="-9" y="1371" type="line"/>
      <point x="301" y="1371" type="line"/>
      <point x="301" y="-225" type="line"/>
      <point x="-9" y="-225" type="line"/>
      <point x="-9" y="-310" type="line"/>
    </contour>
  </outline>
</glyph>
<glyph name="c" format="2">
  <advance width="716"/>
  <unicode hex="0063"/>
  <outline>
    <contour>
      <point x="52" y="434" type="line" smooth="yes"/>
      <point x="52" y="231"/>
      <point x="240" y="-26"/>
      <point x="404" y="-26" type="qcurve" smooth="yes"/>
      <point x="555" y="-26"/>
      <point x="707" y="165"/>
      <point x="707" y="286" type="qcurve" smooth="yes"/>
      <point x="707" y="291" type="line"/>
      <point x="635" y="291" type="line"/>
      <point x="635" y="286" type="line" smooth="yes"/>
      <point x="635" y="191"/>
      <point x="525" y="45"/>
      <point x="404" y="45" type="qcurve" smooth="yes"/>
      <point x="263" y="45"/>
      <point x="128" y="270"/>
      <point x="128" y="434" type="qcurve" smooth="yes"/>
      <point x="128" y="461" type="line" smooth="yes"/>
      <point x="128" y="624"/>
      <point x="263" y="849"/>
      <point x="404" y="849" type="qcurve" smooth="yes"/>
      <point x="525" y="849"/>
      <point x="635" y="703"/>
      <point x="635" y="608" type="qcurve" smooth="yes"/>
      <point x="635" y="604" type="line"/>
      <point x="707" y="604" type="line"/>
      <point x="707" y="608" type="line" smooth="yes"/>
      <point x="707" y="730"/>
      <point x="555" y="920"/>
      <point x="404" y="920" type="qcurve" smooth="yes"/>
      <point x="240" y="920"/>
      <point x="52" y="663"/>
      <point x="52" y="461" type="qcurve" smooth="yes"/>
    </contour>
  </outline>
</glyph>
<glyph name="f" format="1">
  <advance width="416"/>
  <unicode hex="0066"/>
  <outline>
    <contour>
      <point x="160" y="0" type="line"/>
      <point x="235" y="0" type="line"/>
      <point x="235" y="855" type="line"/>
      <point x="235" y="866" type="line"/>
      <point x="235" y="1169" type="line" smooth="yes"/>
      <point x="235" y="1288"/>
      <point x="325" y="1408"/>
      <point x="408" y="1408" type="qcurve" smooth="yes"/>
      <point x="432" y="1408"/>
      <point x="479" y="1400"/>
      <point x="496" y="1396" type="qcurve"/>
      <point x="505" y="1463" type="line"/>
      <point x="482" y="1469"/>
      <point x="429" y="1477"/>
      <point x="403" y="1477" type="qcurve" smooth="yes"/>
      <point x="290" y="1477"/>
      <point x="160" y="1319"/>
      <point x="160" y="1169" type="qcurve" smooth="yes"/>
    </contour>
    <contour>
      <point x="1" y="827" type="line"/>
      <point x="444" y="827" type="line"/>
      <point x="444" y="894" type="line"/>
      <point x="206" y="894" type="line"/>
      <point x="187" y="894" type="line"/>
      <point x="1" y="894" type="line"/>
    </contour>
  </outline>
</glyph>
<glyph name="i" format="1">
  <advance width="302"/>
  <unicode hex="0069"/>
  <outline>
    <contour>
      <point x="113" y="0" type="line"/>
      <point x="189" y="0" type="line"/>
      <point x="189" y="894" type="line"/>
      <point x="113" y="894" type="line"/>
    </contour>
    <contour>
      <point x="99" y="1259" type="qcurve" smooth="yes"/>
      <point x="99" y="1231"/>
      <point x="126" y="1193"/>
      <point x="151" y="1193" type="qcurve" smooth="yes"/>
      <point x="176" y="1193"/>
      <point x="203" y="1231"/>
      <point x="203" y="1259" type="qcurve" smooth="yes"/>
      <point x="203" y="1287"/>
      <point x="176" y="1325"/>
      <point x="151" y="1325" type="qcurve" smooth="yes"/>
      <point x="126" y="1325"/>
      <point x="99" y="1287"/>
    </contour>
  </outline>
</glyph>
<glyph name="j" format="2">
  <advance width="302"/>
  <unicode hex="006A"/>
  <outline>
    <contour>
      <point x="-117" y="-352" type="line"/>
      <point x="-100" y="-358"/>
      <point x="-38" y="-371"/>
      <point x="-11" y="-371" type="qcurve" smooth="yes"/>
      <point x="87" y="-371"/>
      <point x="189" y="-230"/>
      <point x="189" y="-77" type="qcurve" smooth="yes"/>
      <point x="189" y="894" type="line"/>
      <point x="113" y="894" type="line"/>
      <point x="113" y="-111" type="line" smooth="yes"/>
      <point x="113" y="-211"/>
      <point x="41" y="-299"/>
      <point x="-24" y="-299" type="qcurve" smooth="yes"/>
      <point x="-47" y="-299"/>
      <point x="-101" y="-288"/>
      <point x="-117" y="-283" type="qcurve"/>
    </contour>
    <contour>
      <point x="99" y="1249" type="qcurve" smooth="yes"/>
      <point x="99" y="1221"/>
      <point x="126" y="1183"/>
      <point x="151" y="1183" type="qcurve" smooth="yes"/>
      <point x="176" y="1183"/>
      <point x="203" y="1221"/>
      <point x="203" y="1249" type="qcurve" smooth="yes"/>
      <point x="203" y="1277"/>
      <point x="176" y="1315"/>
      <point x="151" y="1315" type="qcurve" smooth="yes"/>
      <point x="126" y="1315"/>
      <point x="99" y="1277"/>
    </contour>
  </outline>
</glyph>
<glyph name="l" format="2">
  <advance width="300"/>
  <unicode hex="006C"/>
  <outline>
    <contour>
      <point x="113" y="0" type="line"/>
      <point x="188" y="0" type="line"/>
      <point x="188" y="1458" type="line"/>
      <point x="113" y="1458" type="line"/>
    </contour>
  </outline>
</glyph>
<glyph name="s" format="1">
  <advance width="694"/>
  <unicode hex="0073"/>
  <outline>
    <contour>
      <point x="48" y="264" type="line"/>
      <point x="48" y="259" type="line" smooth="yes"/>
      <point x="48" y="128"/>
      <point x="204" y="-26"/>
      <point x="352" y="-26" type="qcurve" smooth="yes"/>
      <point x="499" y="-26"/>
      <point x="646" y="122"/>
      <point x="646" y="235" type="qcurve" smooth="yes"/>
      <point x="646" y="345"/>
      <point x="509" y="464"/>
      <point x="378" y="498" type="qcurve" smooth="yes"/>
      <point x="248" y="533"/>
      <point x="156" y="612"/>
      <point x="156" y="683" type="qcurve" smooth="yes"/>
      <point x="156" y="754"/>
      <point x="254" y="849"/>
      <point x="352" y="849" type="qcurve" smooth="yes"/>
      <point x="449" y="849"/>
      <point x="554" y="742"/>
      <point x="554" y="646" type="qcurve" smooth="yes"/>
      <point x="554" y="642" type="line"/>
      <point x="629" y="642" type="line"/>
      <point x="629" y="646" type="line" smooth="yes"/>
      <point x="629" y="771"/>
      <point x="476" y="920"/>
      <point x="352" y="920" type="qcurve" smooth="yes"/>
      <point x="227" y="920"/>
      <point x="81" y="779"/>
      <point x="81" y="675" type="qcurve" smooth="yes"/>
      <point x="81" y="576"/>
      <point x="214" y="461"/>
      <point x="344" y="427" type="qcurve" smooth="yes"/>
      <point x="475" y="393"/>
      <point x="571" y="309"/>
      <point x="571" y="226" type="qcurve" smooth="yes"/>
      <point x="571" y="146"/>
      <point x="455" y="45"/>
      <point x="352" y="45" type="qcurve" smooth="yes"/>
      <point x="248" y="45"/>
      <point x="123" y="151"/>
      <point x="123" y="259" type="qcurve" smooth="yes"/>
      <point x="123" y="264" type="line"/>
    </contour>
  </outline>
</glyph>
<glyph name="t" format="2">
  <advance width="459"/>
  <unicode hex="0074"/>
  <outline>
    <contour>
      <point x="-20" y="827" type="line"/>
      <point x="436" y="827" type="line"/>
      <point x="436" y="894" type="line"/>
      <point x="-20" y="894" type="line"/>
    </contour>
    <contour>
      <point x="152" y="221" type="line" smooth="yes"/>
      <point x="152" y="94"/>
      <point x="246" y="-26"/>
      <point x="327" y="-26" type="qcurve" smooth="yes"/>
      <point x="360" y="-26"/>
      <point x="414" y="-14"/>
      <point x="432" y="-6" type="qcurve"/>
      <point x="432" y="64" type="line"/>
      <point x="410" y="56"/>
      <point x="368" y="47"/>
      <point x="346" y="47" type="qcurve" smooth="yes"/>
      <point x="285" y="47"/>
      <point x="227" y="127"/>
      <point x="227" y="221" type="qcurve" smooth="yes"/>
      <point x="227" y="1272" type="line"/>
      <point x="152" y="1272" type="line"/>
      <point x="152" y="867" type="line"/>
      <point x="152" y="853" type="line"/>
    </contour>
  </outline>
</glyph>
<glyph name="z" format="2">
  <advance width="757"/>
  <unicode hex="007A"/>
  <outline>
    <contour>
      <point x="40" y="0" type="line"/>
      <point x="723" y="0" type="line"/>
      <point x="723" y="70" type="line"/>
      <point x="129" y="70" type="line"/>
      <point x="696" y="821" type="line"/>
      <point x="696" y="894" type="line"/>
      <point x="47" y="894" type="line"/>
      <point x="47" y="824" type="line"/>
      <point x="605" y="824" type="line"/>
      <point x="40" y="74" type="line"/>
    </contour>
  </outline>
</glyph>
<glyph name="asciitilde" format="1">
  <advance width="1173"/>
  <unicode hex="007E"/>
  <outline>
    <contour>
      <point x="119" y="436" type="qcurve"/>
      <point x="207" y="436" type="line"/>
      <point x="207" y="550"/>
      <point x="269" y="712"/>
      <point x="346" y="712" type="qcurve" smooth="yes"/>
      <point x="434" y="712"/>
      <point x="707" y="424"/>
      <point x="827" y="424" type="qcurve" smooth="yes"/>
      <point x="942" y="424"/>
      <point x="1054" y="640"/>
      <point x="1054" y="788" type="qcurve"/>
      <point x="966" y="788" type="line"/>
      <point x="966" y="674"/>
      <point x="904" y="512"/>
      <point x="827" y="512" type="qcurve" smooth="yes"/>
      <point x="739" y="512"/>
      <point x="466" y="800"/>
      <point x="346" y="800" type="qcurve" smooth="yes"/>
      <point x="231" y="800"/>
      <point x="119" y="584"/>
    </contour>
  </outline>
</glyph>
<glyph name="section" format="2">
  <advance width="1050"/>
  <unicode hex="00A7"/>
  <outline>
    <contour>
      <point x="109" y="562" type="qcurve" smooth="yes"/>
      <point x="109" y="430"/>
      <point x="290" y="287"/>
      <point x="478" y="232" type="qcurve" smooth="yes"/>
      <point x="705" y="168"/>
      <point x="850" y="26"/>
      <point x="850" y="-86" type="qcurve" smooth="yes"/>
      <point x="850" y="-211"/>
      <point x="669" y="-364"/>
      <point x="513" y="-364" type="qcurve" smooth="yes"/>
      <point x="357" y="-364"/>
      <point x="168" y="-210"/>
      <point x="168" y="-56" type="qcurve" smooth="yes"/>
      <point x="168" y="-44" type="line"/>
      <point x="80" y="-44" type="line"/>
      <point x="80" y="-56" type="line" smooth="yes"/>
      <point x="80" y="-236"/>
      <point x="317" y="-446"/>
      <point x="513" y="-446" type="qcurve" smooth="yes"/>
      <point x="709" y="-446"/>
      <point x="937" y="-243"/>
      <point x="937" y="-86" type="qcurve" smooth="yes"/>
      <point x="937" y="73"/>
      <point x="758" y="250"/>
      <point x="557" y="306" type="qcurve" smooth="yes"/>
      <point x="350" y="364"/>
      <point x="196" y="475"/>
      <point x="196" y="562" type="qcurve" smooth="yes"/>
      <point x="196" y="669"/>
      <point x="345" y="787"/>
      <point x="503" y="787" type="qcurve"/>
      <point x="385" y="852" type="line"/>
      <point x="252" y="826"/>
      <point x="109" y="677"/>
    </contour>
    <contour>
      <point x="141" y="1139" type="qcurve" smooth="yes"/>
      <point x="141" y="995"/>
      <point x="308" y="820"/>
      <point x="511" y="764" type="qcurve" smooth="yes"/>
      <point x="723" y="706"/>
      <point x="882" y="586"/>
      <point x="882" y="491" type="qcurve" smooth="yes"/>
      <point x="882" y="383"/>
      <point x="708" y="253"/>
      <point x="545" y="253" type="qcurve"/>
      <point x="705" y="191" type="line"/>
      <point x="824" y="224"/>
      <point x="970" y="384"/>
      <point x="970" y="491" type="qcurve" smooth="yes"/>
      <point x="970" y="631"/>
      <point x="775" y="786"/>
      <point x="590" y="838" type="qcurve" smooth="yes"/>
      <point x="366" y="900"/>
      <point x="228" y="1036"/>
      <point x="228" y="1139" type="qcurve" smooth="yes"/>
      <point x="228" y="1264"/>
      <point x="383" y="1404"/>
      <point x="535" y="1404" type="qcurve" smooth="yes"/>
      <point x="687" y="1404"/>
      <point x="852" y="1238"/>
      <point x="852" y="1101" type="qcurve" smooth="yes"/>
      <point x="852" y="1090" type="line"/>
      <point x="940" y="1090" type="line"/>
      <point x="940" y="1101" type="line" smooth="yes"/>
      <point x="940" y="1262"/>
      <point x="727" y="1486"/>
      <point x="535" y="1486" type="qcurve" smooth="yes"/>
      <point x="343" y="1486"/>
      <point x="141" y="1287"/>
    </contour>
  </outline>
</glyph>
<glyph name="plusminus" format="1">
  <advance width="1130"/>
  <unicode hex="00B1"/>
  <outline>
    <contour>
      <point x="147" y="642" type="line"/>
      <point x="983" y="642" type="line"/>
      <point x="983" y="728" type="line"/>
      <point x="147" y="728" type="line"/>
    </contour>
    <contour>
      <point x="522" y="284" type="line"/>
      <point x="608" y="284" type="line"/>
      <point x="608" y="1118" type="line"/>
      <point x="522" y="1118" type="line"/>
    </contour>
    <contour>
      <point x="147" y="48" type="line"/>
      <point x="983" y="48" type="line"/>
      <point x="983" y="133" type="line"/>
      <point x="147" y="133" type="line"/>
    </contour>
  </outline>
</glyph>
<glyph name="threesuperior" format="2">
  <advance width="711"/>
  <unicode hex="00B3"/>
  <outline>
    <contour>
      <point x="246" y="1126" type="line"/>
      <point x="246" y="1048" type="line"/>
      <point x="357" y="1048" type="line" smooth="yes"/>
      <point x="488" y="1048"/>
      <point x="633" y="1164"/>
      <point x="633" y="1243" type="qcurve" smooth="yes"/>
      <point x="633" y="1352"/>
      <point x="470" y="1467"/>
      <point x="340" y="1467" type="qcurve" smooth="yes"/>
      <point x="221" y="1467"/>
      <point x="54" y="1347"/>
      <point x="54" y="1246" type="qcurve"/>
      <point x="211" y="1246" type="line"/>
      <point x="211" y="1289"/>
      <point x="286" y="1339"/>
      <point x="343" y="1339" type="qcurve" smooth="yes"/>
      <point x="412" y="1339"/>
      <point x="476" y="1279"/>
      <point x="476" y="1235" type="qcurve" smooth="yes"/>
      <point x="476" y="1187"/>
      <point x="402" y="1126"/>
      <point x="330" y="1126" type="qcurve" smooth="yes"/>
    </contour>
    <contour>
      <point x="246" y="1011" type="line"/>
      <point x="330" y="1011" type="line" smooth="yes"/>
      <point x="403" y="1011"/>
      <point x="489" y="958"/>
      <point x="489" y="895" type="qcurve" smooth="yes"/>
      <point x="489" y="846"/>
      <point x="415" y="784"/>
      <point x="346" y="784" type="qcurve" smooth="yes"/>
      <point x="280" y="784"/>
      <point x="200" y="845"/>
      <point x="200" y="890" type="qcurve"/>
      <point x="43" y="890" type="line"/>
      <point x="43" y="768"/>
      <point x="228" y="656"/>
      <point x="341" y="656" type="qcurve" smooth="yes"/>
      <point x="471" y="656"/>
      <point x="647" y="777"/>
      <point x="647" y="887" type="qcurve" smooth="yes"/>
      <point x="647" y="983"/>
      <point x="506" y="1089"/>
      <point x="357" y="1089" type="qcurve" smooth="yes"/>
      <point x="246" y="1089" type="line"/>
    </contour>
  </outline>
</glyph>
<glyph name="acute" format="1">
  <advance width="996"/>
  <unicode hex="00B4"/>
  <outline>
    <contour>
      <point x="432" y="1156" type="line"/>
      <point x="520" y="1156" type="line"/>
      <point x="777" y="1456" type="line"/>
      <point x="667" y="1456" type="line"/>
    </contour>
  </outline>
</glyph>
<glyph name="paragraph" format="2">
  <advance width="1198"/>
  <unicode hex="00B6"/>
  <outline>
    <contour>
      <point x="80" y="986" type="qcurve" smooth="yes"/>
      <point x="80" y="786"/>
      <point x="330" y="513"/>
      <point x="517" y="516" type="qcurve" smooth="yes"/>
      <point x="574" y="516" type="line"/>
      <point x="574" y="-200" type="line"/>
      <point x="663" y="-200" type="line"/>
      <point x="663" y="1361" type="line"/>
      <point x="862" y="1361" type="line"/>
      <point x="862" y="-200" type="line"/>
      <point x="951" y="-200" type="line"/>
      <point x="951" y="1361" type="line"/>
      <point x="1143" y="1361" type="line"/>
      <point x="1143" y="1456" type="line"/>
      <point x="517" y="1456" type="line" smooth="yes"/>
      <point x="330" y="1456"/>
      <point x="80" y="1186"/>
    </contour>
  </outline>
</glyph>
<glyph name="periodcentered" format="1">
  <advance width="425"/>
  <unicode hex="00B7"/>
  <outline>
    <contour>
      <point x="140" y="730" type="qcurve" smooth="yes"/>
      <point x="140" y="692"/>
      <point x="177" y="639"/>
      <point x="212" y="639" type="qcurve" smooth="yes"/>
      <point x="247" y="639"/>
      <point x="285" y="692"/>
      <point x="285" y="730" type="qcurve" smooth="yes"/>
      <point x="285" y="768"/>
      <point x="247" y="821"/>
      <point x="212" y="821" type="qcurve" smooth="yes"/>
      <point x="177" y="821"/>
      <point x="140" y="768"/>
    </contour>
  </outline>
</glyph>
<glyph name="guillemetright" format="2">
  <advance width="902"/>
  <unicode hex="00BB"/>
  <outline>
    <contour>
      <point x="138" y="204" type="line"/>
      <point x="475" y="592" type="line"/>
      <point x="475" y="612" type="line"/>
      <point x="138" y="1000" type="line"/>
      <point x="46" y="1000" type="line"/>
      <point x="368" y="602" type="line"/>
      <point x="46" y="204" type="line"/>
    </contour>
    <contour>
      <point x="513" y="204" type="line"/>
      <point x="850" y="592" type="line"/>
      <point x="850" y="612" type="line"/>
      <point x="513" y="1000" type="line"/>
      <point x="421" y="1000" type="line"/>
      <point x="742" y="602" type="line"/>
      <point x="421" y="204" type="line"/>
    </contour>
  </outline>
</glyph>
<glyph name="Eth" format="1">
  <advance width="1135"/>
  <unicode hex="00D0"/>
  <outline>
    <contour>
      <point x="150" y="0" type="line"/>
      <point x="497" y="0" type="line" smooth="yes"/>
      <point x="751" y="0"/>
      <point x="1073" y="370"/>
      <point x="1073" y="687" type="qcurve" smooth="yes"/>
      <point x="1073" y="769" type="line" smooth="yes"/>
      <point x="1073" y="1086"/>
      <point x="751" y="1456"/>
      <point x="497" y="1456" type="qcurve" smooth="yes"/>
      <point x="150" y="1456" type="line"/>
    </contour>
    <contour>
      <point x="240" y="85" type="line"/>
      <point x="240" y="1371" type="line"/>
      <point x="497" y="1371" type="line" smooth="yes"/>
      <point x="719" y="1371"/>
      <point x="982" y="1051"/>
      <point x="982" y="769" type="qcurve" smooth="yes"/>
      <point x="982" y="687" type="line" smooth="yes"/>
      <point x="982" y="405"/>
      <point x="719" y="85"/>
      <point x="497" y="85" type="qcurve" smooth="yes"/>
    </contour>
    <contour>
      <point x="15" y="770" type="line"/>
      <point x="15" y="688" type="line"/>
      <point x="601" y="688" type="line"/>
      <point x="601" y="770" type="line"/>
    </contour>
  </outline>
</glyph>
<glyph name="Thorn" format="1">
  <advance width="1046"/>
  <unicode hex="00DE"/>
  <outline>
    <contour>
      <point x="150" y="0" type="line"/>
      <point x="240" y="0" type="line"/>
      <point x="240" y="308" type="line"/>
      <point x="556" y="308" type="line" smooth="yes"/>
      <point x="762" y="308"/>
      <point x="966" y="547"/>
      <point x="966" y="735" type="qcurve" smooth="yes"/>
      <point x="966" y="923"/>
      <point x="762" y="1160"/>
      <point x="556" y="1160" type="qcurve" smooth="yes"/>
      <point x="240" y="1160" type="line"/>
      <point x="240" y="1456" type="line"/>
      <point x="150" y="1456" type="line"/>
    </contour>
    <contour>
      <point x="240" y="393" type="line"/>
      <point x="240" y="1076" type="line"/>
      <point x="556" y="1076" type="line" smooth="yes"/>
      <point x="733" y="1076"/>
      <point x="875" y="881"/>
      <point x="875" y="735" type="qcurve" smooth="yes"/>
      <point x="875" y="589"/>
      <point x="733" y="393"/>
      <point x="556" y="393" type="qcurve" smooth="yes"/>
    </contour>
  </outline>
</glyph>
<glyph name="divide" format="1">
  <advance width="1130"/>
  <unicode hex="00F7"/>
  <outline>
    <contour>
      <point x="95" y="629" type="line"/>
      <point x="1035" y="629" type="line"/>
      <point x="1035" y="719" type="line"/>
      <point x="95" y="719" type="line"/>
    </contour>
    <contour>
      <point x="494" y="295" type="qcurve" smooth="yes"/>
      <point x="494" y="258"/>
      <point x="531" y="206"/>
      <point x="565" y="206" type="qcurve" smooth="yes"/>
      <point x="599" y="206"/>
      <point x="636" y="258"/>
      <point x="636" y="295" type="qcurve" smooth="yes"/>
      <point x="636" y="332"/>
      <point x="599" y="384"/>
      <point x="565" y="384" type="qcurve" smooth="yes"/>
      <point x="531" y="384"/>
      <point x="494" y="332"/>
    </contour>
    <contour>
      <point x="494" y="1053" type="qcurve" smooth="yes"/>
      <point x="494" y="1016"/>
      <point x="531" y="964"/>
      <point x="565" y="964" type="qcurve" smooth="yes"/>
      <point x="599" y="964"/>
      <point x="636" y="1016"/>
      <point x="636" y="1053" type="qcurve" smooth="yes"/>
      <point x="636" y="1090"/>
      <point x="599" y="1142"/>
      <point x="565" y="1142" type="qcurve" smooth="yes"/>
      <point x="531" y="1142"/>
      <point x="494" y="1090"/>
    </contour>
  </outline>
</glyph>
<glyph name="oslash" format="1">
  <advance width="960"/>
  <unicode hex="00F8"/>
  <outline>
    <contour>
      <point x="65" y="510" type="line" smooth="yes"/>
      <point x="65" y="272"/>
      <point x="291" y="-30"/>
      <point x="480" y="-30" type="qcurve" smooth="yes"/>
      <point x="669" y="-30"/>
      <point x="895" y="272"/>
      <point x="895" y="510" type="qcurve" smooth="yes"/>
      <point x="895" y="542" type="line" smooth="yes"/>
      <point x="895" y="780"/>
      <point x="669" y="1082"/>
      <point x="480" y="1082" type="qcurve" smooth="yes"/>
      <point x="291" y="1082"/>
      <point x="65" y="780"/>
      <point x="65" y="542" type="qcurve" smooth="yes"/>
    </contour>
    <contour>
      <point x="162" y="542" type="line" smooth="yes"/>
      <point x="162" y="734"/>
      <point x="324" y="999"/>
      <point x="480" y="999" type="qcurve" smooth="yes"/>
      <point x="637" y="999"/>
      <point x="799" y="734"/>
      <point x="799" y="542" type="qcurve" smooth="yes"/>
      <point x="799" y="510" type="line" smooth="yes"/>
      <point x="799" y="318"/>
      <point x="637" y="53"/>
      <point x="480" y="53" type="qcurve" smooth="yes"/>
      <point x="324" y="53"/>
      <point x="162" y="318"/>
      <point x="162" y="510" type="qcurve" smooth="yes"/>
    </contour>
    <contour>
      <point x="64" y="-120" type="line"/>
      <point x="151" y="-120" type="line"/>
      <point x="259" y="68" type="line"/>
      <point x="258" y="68" type="line"/>
      <point x="520" y="526" type="line"/>
      <point x="441" y="526" type="line"/>
      <point x="224" y="150" type="line"/>
      <point x="222" y="150" type="line"/>
    </contour>
    <contour>
      <point x="441" y="526" type="line"/>
      <point x="520" y="526" type="line"/>
      <point x="737" y="902" type="line"/>
      <point x="738" y="902" type="line"/>
      <point x="897" y="1172" type="line"/>
      <point x="809" y="1172" type="line"/>
      <point x="702" y="984" type="line"/>
      <point x="703" y="984" type="line"/>
    </contour>
  </outline>
</glyph>
<glyph name="thorn" format="2">
  <advance width="969"/>
  <unicode hex="00FE"/>
  <outline>
    <contour>
      <point x="128" y="-416" type="line"/>
      <point x="216" y="-416" type="line"/>
      <point x="216" y="125" type="line"/>
      <point x="262" y="63"/>
      <point x="420" y="-20"/>
      <point x="525" y="-20" type="qcurve" smooth="yes"/>
      <point x="703" y="-20"/>
      <point x="904" y="281"/>
      <point x="904" y="510" type="qcurve" smooth="yes"/>
      <point x="904" y="542" type="line" smooth="yes"/>
      <point x="904" y="771"/>
      <point x="703" y="1072"/>
      <point x="525" y="1072" type="qcurve" smooth="yes"/>
      <point x="420" y="1072"/>
      <point x="254" y="978"/>
      <point x="216" y="917" type="qcurve"/>
      <point x="216" y="1536" type="line"/>
      <point x="128" y="1536" type="line"/>
    </contour>
    <contour>
      <point x="216" y="244" type="qcurve"/>
      <point x="216" y="808" type="line"/>
      <point x="249" y="879"/>
      <point x="399" y="989"/>
      <point x="506" y="989" type="qcurve" smooth="yes"/>
      <point x="665" y="989"/>
      <point x="815" y="731"/>
      <point x="815" y="542" type="qcurve" smooth="yes"/>
      <point x="815" y="510" type="line" smooth="yes"/>
      <point x="815" y="321"/>
      <point x="665" y="63"/>
      <point x="506" y="63" type="qcurve" smooth="yes"/>
      <point x="399" y="63"/>
      <point x="249" y="173"/>
    </contour>
  </outline>
</glyph>
<glyph name="oe" format="1">
  <advance width="1537"/>
  <unicode hex="0153"/>
  <outline>
    <contour>
      <point x="52" y="434" type="line" smooth="yes"/>
      <point x="52" y="231"/>
      <point x="249" y="-26"/>
      <point x="413" y="-26" type="qcurve" smooth="yes"/>
      <point x="532" y="-26"/>
      <point x="697" y="113"/>
      <point x="734" y="231" type="qcurve"/>
      <point x="770" y="113"/>
      <point x="937" y="-26"/>
      <point x="1067" y="-26" type="qcurve" smooth="yes"/>
      <point x="1170" y="-26"/>
      <point x="1311" y="62"/>
      <point x="1350" y="117" type="qcurve"/>
      <point x="1298" y="164" type="line"/>
      <point x="1258" y="109"/>
      <point x="1146" y="45"/>
      <point x="1067" y="45" type="qcurve" smooth="yes"/>
      <point x="916" y="45"/>
      <point x="773" y="269"/>
      <point x="773" y="434" type="qcurve" smooth="yes"/>
      <point x="773" y="461" type="line" smooth="yes"/>
      <point x="773" y="625"/>
      <point x="909" y="849"/>
      <point x="1040" y="849" type="qcurve" smooth="yes"/>
      <point x="1171" y="849"/>
      <point x="1281" y="652"/>
      <point x="1281" y="519" type="qcurve"/>
      <point x="1281" y="508" type="line"/>
      <point x="737" y="508" type="line"/>
      <point x="737" y="440" type="line"/>
      <point x="1356" y="440" type="line"/>
      <point x="1356" y="476" type="line" smooth="yes"/>
      <point x="1356" y="680"/>
      <point x="1192" y="920"/>
      <point x="1040" y="920" type="qcurve" smooth="yes"/>
      <point x="928" y="920"/>
      <point x="770" y="781"/>
      <point x="734" y="663" type="qcurve"/>
      <point x="697" y="781"/>
      <point x="532" y="920"/>
      <point x="413" y="920" type="qcurve" smooth="yes"/>
      <point x="249" y="920"/>
      <point x="52" y="663"/>
      <point x="52" y="461" type="qcurve" smooth="yes"/>
    </contour>
    <contour>
      <point x="128" y="434" type="qcurve" smooth="yes"/>
      <point x="128" y="461" type="line" smooth="yes"/>
      <point x="128" y="624"/>
      <point x="273" y="849"/>
      <point x="413" y="849" type="qcurve" smooth="yes"/>
      <point x="553" y="849"/>
      <point x="697" y="624"/>
      <point x="697" y="461" type="qcurve" smooth="yes"/>
      <point x="697" y="434" type="line" smooth="yes"/>
      <point x="697" y="270"/>
      <point x="553" y="45"/>
      <point x="413" y="45" type="qcurve" smooth="yes"/>
      <point x="273" y="45"/>
      <point x="128" y="270"/>
    </contour>
  </outline>
</glyph>
<glyph name="circumflex" format="2">
  <advance width="1010"/>
  <unicode hex="02C6"/>
  <outline>
    <contour>
      <point x="194" y="1156" type="line"/>
      <point x="287" y="1156" type="line"/>
      <point x="505" y="1392" type="line"/>
      <point x="723" y="1156" type="line"/>
      <point x="816" y="1156" type="line"/>
      <point x="553" y="1456" type="line"/>
      <point x="457" y="1456" type="line"/>
    </contour>
  </outline>
</glyph>
<glyph name="Germandbls" format="1">
  <advance width="1149"/>
  <unicode hex="1E9E"/>
  <outline>
    <contour>
      <point x="150" y="0" type="line"/>
      <point x="240" y="0" type="line"/>
      <point x="240" y="1040" type="line" smooth="yes"/>
      <point x="240" y="1218"/>
      <point x="416" y="1400"/>
      <point x="568" y="1400" type="qcurve" smooth="yes"/>
      <point x="717" y="1400"/>
      <point x="864" y="1237"/>
      <point x="867" y="1096" type="qcurve"/>
      <point x="551" y="786" type="line"/>
      <point x="580" y="697" type="line"/>
      <point x="784" y="667"/>
      <point x="969" y="523"/>
      <point x="969" y="410" type="qcurve" smooth="yes"/>
      <point x="969" y="370" type="line" smooth="yes"/>
      <point x="969" y="224"/>
      <point x="769" y="65"/>
      <point x="609" y="65" type="qcurve" smooth="yes"/>
      <point x="568" y="65"/>
      <point x="470" y="77"/>
      <point x="443" y="82" type="qcurve"/>
      <point x="431" y="-4" type="line"/>
      <point x="466" y="-10"/>
      <point x="572" y="-20"/>
      <point x="620" y="-20" type="qcurve" smooth="yes"/>
      <point x="822" y="-20"/>
      <point x="1059" y="198"/>
      <point x="1059" y="370" type="qcurve" smooth="yes"/>
      <point x="1059" y="410" type="line" smooth="yes"/>
      <point x="1059" y="551"/>
      <point x="836" y="736"/>
      <point x="647" y="766" type="qcurve"/>
      <point x="647" y="772" type="line"/>
      <point x="957" y="1070" type="line"/>
      <point x="957" y="1090" type="line" smooth="yes"/>
      <point x="957" y="1262"/>
      <point x="749" y="1486"/>
      <point x="568" y="1486" type="qcurve" smooth="yes"/>
      <point x="384" y="1486"/>
      <point x="150" y="1260"/>
      <point x="150" y="1040" type="qcurve" smooth="yes"/>
    </contour>
  </outline>
</glyph>
<glyph name="quoteleft" format="2">
  <advance width="320"/>
  <unicode hex="2018"/>
  <outline>
    <contour>
      <point x="100" y="1162" type="line"/>
      <point x="200" y="1162" type="line"/>
      <point x="200" y="1249" type="line" smooth="yes"/>
      <point x="200" y="1315"/>
      <point x="230" y="1413"/>
      <point x="259" y="1460" type="qcurve"/>
      <point x="194" y="1502" type="line"/>
      <point x="150" y="1453"/>
      <point x="100" y="1329"/>
      <point x="100" y="1249" type="qcurve" smooth="yes"/>
    </contour>
  </outline>
</glyph>
<glyph name="quoteright" format="1">
  <advance width="320"/>
  <unicode hex="2019"/>
  <outline>
    <contour>
      <point x="61" y="1158" type="qcurve"/>
      <point x="126" y="1116" type="line"/>
      <point x="170" y="1164"/>
      <point x="220" y="1289"/>
      <point x="220" y="1369" type="qcurve" smooth="yes"/>
      <point x="220" y="1456" type="line"/>
      <point x="120" y="1456" type="line"/>
      <point x="120" y="1369" type="line" smooth="yes"/>
      <point x="120" y="1303"/>
      <point x="90" y="1204"/>
    </contour>
  </outline>
</glyph>
<glyph name="quotedblleft" format="1">
  <advance width="620"/>
  <unicode hex="201C"/>
  <outline>
    <contour>
      <point x="100" y="1162" type="line"/>
      <point x="200" y="1162" type="line"/>
      <point x="200" y="1249" type="line" smooth="yes"/>
      <point x="200" y="1315"/>
      <point x="230" y="1413"/>
      <point x="259" y="1460" type="qcurve"/>
      <point x="194" y="1502" type="line"/>
      <point x="150" y="1453"/>
      <point x="100" y="1329"/>
      <point x="100" y="1249" type="qcurve" smooth="yes"/>
    </contour>
    <contour>
      <point x="400" y="1162" type="line"/>
      <point x="500" y="1162" type="line"/>
      <point x="500" y="1249" type="line" smooth="yes"/>
      <point x="500" y="1315"/>
      <point x="530" y="1413"/>
      <point x="559" y="1460" type="qcurve"/>
      <point x="494" y="1502" type="line"/>
      <point x="450" y="1453"/>
      <point x="400" y="1329"/>
      <point x="400" y="1249" type="qcurve" smooth="yes"/>
    </contour>
  </outline>
</glyph>
<glyph name="dagger" format="2">
  <advance width="1031"/>
  <unicode hex="2020"/>
  <outline>
    <contour>
      <point x="488" y="-220" type="line"/>
      <point x="543" y="-220" type="line"/>
      <point x="560" y="524" type="line"/>
      <point x="547" y="1020" type="line"/>
      <point x="565" y="1516" type="line"/>
      <point x="466" y="1516" type="line"/>
      <point x="484" y="1020" type="line"/>
      <point x="471" y="524" type="line"/>
    </contour>
    <contour>
      <point x="30" y="978" type="line"/>
      <point x="515" y="987" type="line"/>
      <point x="1001" y="978" type="line"/>
      <point x="1001" y="1072" type="line"/>
      <point x="515" y="1063" type="line"/>
      <point x="30" y="1072" type="line"/>
    </contour>
  </outline>
</glyph>
<glyph name="guilsinglleft" format="2">
  <advance width="528"/>
  <unicode hex="2039"/>
  <outline>
    <contour>
      <point x="389" y="204" type="line"/>
      <point x="481" y="204" type="line"/>
      <point x="160" y="602" type="line"/>
      <point x="482" y="1000" type="line"/>
      <point x="389" y="1000" type="line"/>
      <point x="52" y="612" type="line"/>
      <point x="52" y="592" type="line"/>
    </contour>
  </outline>
</glyph>
<glyph name="guilsinglright" format="2">
  <advance width="527"/>
  <unicode hex="203A"/>
  <outline>
    <contour>
      <point x="138" y="204" type="line"/>
      <point x="475" y="592" type="line"/>
      <point x="475" y="612" type="line"/>
      <point x="138" y="1000" type="line"/>
      <point x="46" y="1000" type="line"/>
      <point x="368" y="602" type="line"/>
      <point x="46" y="204" type="line"/>
    </contour>
  </outline>
</glyph>
<glyph name="won" format="2">
  <advance width="1289"/>
  <unicode hex="20A9"/>
  <outline>
    <contour>
      <point x="321" y="-10" type="line"/>
      <point x="414" y="-10" type="line"/>
      <point x="604" y="544" type="line" smooth="yes"/>
      <point x="616" y="577"/>
      <point x="634" y="639"/>
      <point x="642" y="672" type="qcurve"/>
      <point x="647" y="672" type="line"/>
      <point x="655" y="639"/>
      <point x="673" y="577"/>
      <point x="685" y="544" type="qcurve" smooth="yes"/>
      <point x="875" y="-10" type="line"/>
      <point x="968" y="-10" type="line"/>
      <point x="1209" y="1456" type="line"/>
      <point x="1126" y="1456" type="line"/>
      <point x="932" y="244" type="line" smooth="yes"/>
      <point x="927" y="210"/>
      <point x="918" y="149"/>
      <point x="915" y="116" type="qcurve"/>
      <point x="911" y="116" type="line"/>
      <point x="904" y="149"/>
      <point x="884" y="210"/>
      <point x="872" y="244" type="qcurve" smooth="yes"/>
      <point x="696" y="756" type="line"/>
      <point x="599" y="756" type="line"/>
      <point x="423" y="244" type="line" smooth="yes"/>
      <point x="412" y="210"/>
      <point x="391" y="149"/>
      <point x="384" y="116" type="qcurve"/>
      <point x="380" y="116" type="line"/>
      <point x="377" y="149"/>
      <point x="369" y="210"/>
      <point x="363" y="244" type="qcurve" smooth="yes"/>
      <point x="169" y="1456" type="line"/>
      <point x="80" y="1456" type="line"/>
    </contour>
    <contour>
      <point x="10" y="885" type="line"/>
      <point x="1279" y="885" type="line"/>
      <point x="1279" y="969" type="line"/>
      <point x="10" y="969" type="line"/>
    </contour>
    <contour>
      <point x="0" y="1198" type="line"/>
      <point x="1289" y="1198" type="line"/>
      <point x="1289" y="1282" type="line"/>
      <point x="0" y="1282" type="line"/>
    </contour>
  </outline>
</glyph>
<glyph name="trademark" format="1">
  <advance width="1521"/>
  <unicode hex="2122"/>
  <outline>
    <contour>
      <point x="256" y="820" type="line"/>
      <point x="334" y="820" type="line"/>
      <point x="334" y="1379" type="line"/>
      <point x="552" y="1379" type="line"/>
      <point x="552" y="1456" type="line"/>
      <point x="39" y="1456" type="line"/>
      <point x="39" y="1379" type="line"/>
      <point x="256" y="1379" type="line"/>
    </contour>
    <contour>
      <point x="624" y="820" type="line"/>
      <point x="695" y="820" type="line"/>
      <point x="695" y="1358" type="line"/>
      <point x="922" y="820" type="line"/>
      <point x="1005" y="820" type="line"/>
      <point x="1232" y="1358" type="line"/>
      <point x="1232" y="820" type="line"/>
      <point x="1306" y="820" type="line"/>
      <point x="1306" y="1456" type="line"/>
      <point x="1199" y="1456" type="line"/>
      <point x="966" y="903" type="line"/>
      <point x="733" y="1456" type="line"/>
      <point x="624" y="1456" type="line"/>
    </contour>
  </outline>
</glyph>
<glyph name="f_f_i" format="1">
  <advance width="1453"/>
  <unicode hex="FB03"/>
  <outline>
    <contour>
      <point x="183" y="0" type="line"/>
      <point x="271" y="0" type="line"/>
      <point x="271" y="1005" type="line"/>
      <point x="271" y="1019" type="line"/>
      <point x="271" y="1194" type="line" smooth="yes"/>
      <point x="271" y="1334"/>
      <point x="390" y="1475"/>
      <point x="509" y="1475" type="qcurve" smooth="yes"/>
      <point x="562" y="1475"/>
      <point x="660" y="1451"/>
      <point x="703" y="1434" type="qcurve"/>
      <point x="724" y="1511" type="line"/>
      <point x="674" y="1531"/>
      <point x="565" y="1556"/>
      <point x="509" y="1556" type="qcurve" smooth="yes"/>
      <point x="355" y="1556"/>
      <point x="183" y="1371"/>
      <point x="183" y="1194" type="qcurve" smooth="yes"/>
    </contour>
    <contour>
      <point x="5" y="973" type="line"/>
      <point x="553" y="973" type="line"/>
      <point x="553" y="1052" type="line"/>
      <point x="241" y="1052" type="line"/>
      <point x="220" y="1052" type="line"/>
      <point x="5" y="1052" type="line"/>
    </contour>
    <contour>
      <point x="706" y="0" type="line"/>
      <point x="795" y="0" type="line"/>
      <point x="795" y="1005" type="line"/>
      <point x="795" y="1019" type="line"/>
      <point x="795" y="1194" type="line" smooth="yes"/>
      <point x="795" y="1334"/>
      <point x="911" y="1475"/>
      <point x="1029" y="1475" type="qcurve" smooth="yes"/>
      <point x="1084" y="1475"/>
      <point x="1187" y="1448"/>
      <point x="1232" y="1430" type="qcurve"/>
      <point x="1253" y="1506" type="line"/>
      <point x="1201" y="1528"/>
      <point x="1087" y="1556"/>
      <point x="1029" y="1556" type="qcurve" smooth="yes"/>
      <point x="877" y="1556"/>
      <point x="706" y="1371"/>
      <point x="706" y="1194" type="qcurve" smooth="yes"/>
    </contour>
    <contour>
      <point x="531" y="973" type="line"/>
      <point x="1073" y="973" type="line"/>
      <point x="1073" y="1052" type="line"/>
      <point x="768" y="1052" type="line"/>
      <point x="746" y="1052" type="line"/>
      <point x="531" y="1052" type="line"/>
    </contour>
    <contour>
      <point x="1231" y="0" type="line"/>
      <point x="1319" y="0" type="line"/>
      <point x="1319" y="1052" type="line"/>
      <point x="1231" y="1052" type="line"/>
    </contour>
  </outline>
</glyph>
<glyph name="f_f_l" format="2">
  <advance width="1486"/>
  <unicode hex="FB04"/>
  <outline>
    <contour>
      <point x="183" y="0" type="line"/>
      <point x="271" y="0" type="line"/>
      <point x="271" y="1005" type="line"/>
      <point x="271" y="1019" type="line"/>
      <point x="271" y="1194" type="line" smooth="yes"/>
      <point x="271" y="1334"/>
      <point x="390" y="1475"/>
      <point x="509" y="1475" type="qcurve" smooth="yes"/>
      <point x="562" y="1475"/>
      <point x="660" y="1451"/>
      <point x="703" y="1434" type="qcurve"/>
      <point x="724" y="1511" type="line"/>
      <point x="674" y="1531"/>
      <point x="565" y="1556"/>
      <point x="509" y="1556" type="qcurve" smooth="yes"/>
      <point x="356" y="1556"/>
      <point x="183" y="1371"/>
      <point x="183" y="1194" type="qcurve" smooth="yes"/>
    </contour>
    <contour>
      <point x="5" y="973" type="line"/>
      <point x="549" y="973" type="line"/>
      <point x="549" y="1052" type="line"/>
      <point x="241" y="1052" type="line"/>
      <point x="220" y="1052" type="line"/>
      <point x="5" y="1052" type="line"/>
    </contour>
    <contour>
      <point x="706" y="0" type="line"/>
      <point x="794" y="0" type="line"/>
      <point x="794" y="1005" type="line"/>
      <point x="794" y="1019" type="line"/>
      <point x="794" y="1194" type="line" smooth="yes"/>
      <point x="794" y="1334"/>
      <point x="910" y="1475"/>
      <point x="1029" y="1475" type="qcurve" smooth="yes"/>
      <point x="1102" y="1475"/>
      <point x="1237" y="1440"/>
      <point x="1289" y="1417" type="qcurve"/>
      <point x="1312" y="1496" type="line"/>
      <point x="1250" y="1521"/>
      <point x="1103" y="1556"/>
      <point x="1029" y="1556" type="qcurve" smooth="yes"/>
      <point x="877" y="1556"/>
      <point x="706" y="1371"/>
      <point x="706" y="1194" type="qcurve" smooth="yes"/>
    </contour>
    <contour>
      <point x="527" y="973" type="line"/>
      <point x="1070" y="973" type="line"/>
      <point x="1070" y="1052" type="line"/>
      <point x="768" y="1052" type="line"/>
      <point x="746" y="1052" type="line"/>
      <point x="527" y="1052" type="line"/>
    </contour>
    <contour>
      <point x="1261" y="0" type="line"/>
      <point x="1349" y="0" type="line"/>
      <point x="1349" y="1496" type="line"/>
      <point x="1261" y="1496" type="line"/>
    </contour>
  </outline>
</glyph>
<glyph name="five.pnum" format="2">
  <advance width="1143"/>
  <outline>
    <contour>
      <point x="171" y="365" type="line" smooth="yes"/>
      <point x="171" y="195"/>
      <point x="388" y="-30"/>
      <point x="564" y="-30" type="qcurve" smooth="yes"/>
      <point x="739" y="-30"/>
      <point x="969" y="235"/>
      <point x="969" y="465" type="qcurve" smooth="yes"/>
      <point x="969" y="680"/>
      <point x="742" y="919"/>
      <point x="580" y="919" type="qcurve" smooth="yes"/>
      <point x="498" y="919"/>
      <point x="360" y="854"/>
      <point x="314" y="805" type="qcurve"/>
      <point x="372" y="1368" type="line"/>
      <point x="901" y="1368" type="line"/>
      <point x="901" y="1456" type="line"/>
      <point x="297" y="1456" type="line"/>
      <point x="223" y="723" type="line"/>
      <point x="298" y="691" type="line"/>
      <point x="347" y="753"/>
      <point x="481" y="834"/>
      <point x="564" y="834" type="qcurve" smooth="yes"/>
      <point x="702" y="834"/>
      <point x="879" y="645"/>
      <point x="879" y="465" type="qcurve" smooth="yes"/>
      <point x="879" y="270"/>
      <point x="702" y="55"/>
      <point x="564" y="55" type="qcurve" smooth="yes"/>
      <point x="425" y="55"/>
      <point x="259" y="221"/>
      <point x="259" y="365" type="qcurve" smooth="yes"/>
      <point x="259" y="375" type="line"/>
      <point x="171" y="375" type="line"/>
    </contour>
  </outline>
</glyph>
